<?xml version="1.0" encoding="UTF-8" standalone="no"?>
<svg
   xmlns:dc="http://purl.org/dc/elements/1.1/"
   xmlns:cc="http://creativecommons.org/ns#"
   xmlns:rdf="http://www.w3.org/1999/02/22-rdf-syntax-ns#"
   xmlns:svg="http://www.w3.org/2000/svg"
   xmlns="http://www.w3.org/2000/svg"
   viewBox="0 0 576 192"
   height="192"
   width="576"
   xml:space="preserve"
   id="svg2"
   version="1.1"><metadata
     id="metadata8"><rdf:RDF><cc:Work
         rdf:about=""><dc:format>image/svg+xml</dc:format><dc:type
           rdf:resource="http://purl.org/dc/dcmitype/StillImage" /></cc:Work></rdf:RDF></metadata><defs
     id="defs6"><clipPath
       id="clipPath18"
       clipPathUnits="userSpaceOnUse"><path
         id="path16"
         d="M 0,144 H 432 V 0 H 0 Z" /></clipPath></defs><g
     transform="matrix(1.3333333,0,0,-1.3333333,0,192)"
     id="g10"><g
       id="g12"><g
         clip-path="url(#clipPath18)"
         id="g14"><g
           transform="translate(44.2136,33.8329)"
           id="g20"><path
             id="path22"
             style="fill:#231f20;fill-opacity:1;fill-rule:nonzero;stroke:none"
             d="M 0,0 H 0.793 C 1.069,0 1.287,0.034 1.45,0.105 1.613,0.173 1.767,0.291 1.912,0.458 l 5.184,5.867 c 0.158,0.18 0.312,0.308 0.461,0.386 0.148,0.077 0.339,0.113 0.571,0.113 H 9.92 L 3.987,0.12 C 3.835,-0.047 3.692,-0.188 3.558,-0.304 3.424,-0.419 3.281,-0.513 3.129,-0.586 3.332,-0.65 3.509,-0.749 3.661,-0.879 3.813,-1.01 3.972,-1.172 4.139,-1.369 l 6.194,-7.378 H 8.507 c -0.138,0 -0.253,0.011 -0.347,0.032 -0.094,0.024 -0.176,0.051 -0.244,0.088 -0.07,0.036 -0.133,0.083 -0.19,0.141 -0.059,0.058 -0.117,0.12 -0.175,0.186 L 2.172,-2.118 C 2.093,-2.032 2.018,-1.957 1.95,-1.895 1.881,-1.833 1.801,-1.782 1.711,-1.737 1.62,-1.694 1.516,-1.664 1.396,-1.645 1.276,-1.628 1.129,-1.619 0.956,-1.619 H 0 V -8.747 H -2.097 V 6.824 H 0 Z" /></g><g
           transform="translate(73.0194,32.866)"
           id="g24"><path
             id="path26"
             style="fill:#231f20;fill-opacity:1;fill-rule:nonzero;stroke:none"
             d="M 0,0 C 0,0.956 -0.13,1.816 -0.391,2.576 -0.652,3.337 -1.021,3.979 -1.5,4.505 -1.978,5.029 -2.557,5.433 -3.239,5.716 -3.919,5.998 -4.679,6.139 -5.52,6.139 -6.353,6.139 -7.111,5.998 -7.791,5.716 -8.472,5.433 -9.053,5.029 -9.535,4.505 -10.017,3.979 -10.388,3.337 -10.649,2.576 -10.91,1.816 -11.04,0.956 -11.04,0 c 0,-0.956 0.13,-1.812 0.391,-2.569 0.261,-0.757 0.632,-1.399 1.114,-1.923 0.482,-0.526 1.063,-0.929 1.744,-1.207 0.68,-0.278 1.438,-0.419 2.271,-0.419 0.841,0 1.601,0.141 2.281,0.419 0.682,0.278 1.261,0.681 1.739,1.207 0.479,0.524 0.848,1.166 1.109,1.923 C -0.13,-1.812 0,-0.956 0,0 M 2.163,0 C 2.163,-1.166 1.978,-2.235 1.608,-3.211 1.239,-4.184 0.717,-5.023 0.043,-5.727 -0.63,-6.428 -1.44,-6.974 -2.385,-7.361 -3.331,-7.748 -4.376,-7.943 -5.52,-7.943 c -1.145,0 -2.187,0.195 -3.13,0.582 -0.941,0.387 -1.748,0.933 -2.422,1.634 -0.674,0.704 -1.196,1.543 -1.565,2.516 -0.37,0.976 -0.554,2.045 -0.554,3.211 0,1.166 0.184,2.238 0.554,3.211 0.369,0.975 0.891,1.816 1.565,2.522 0.674,0.706 1.481,1.253 2.422,1.645 0.943,0.391 1.985,0.588 3.13,0.588 1.144,0 2.189,-0.197 3.135,-0.588 C -1.44,6.986 -0.63,6.439 0.043,5.733 0.717,5.027 1.239,4.186 1.608,3.211 1.978,2.238 2.163,1.166 2.163,0" /></g><g
           transform="translate(90.3829,38.2225)"
           id="g28"><path
             id="path30"
             style="fill:#231f20;fill-opacity:1;fill-rule:nonzero;stroke:none"
             d="m 0,0 c -0.065,-0.107 -0.135,-0.188 -0.208,-0.244 -0.071,-0.053 -0.165,-0.081 -0.282,-0.081 -0.123,0 -0.266,0.062 -0.429,0.184 -0.162,0.124 -0.369,0.259 -0.619,0.408 -0.25,0.148 -0.551,0.285 -0.902,0.407 -0.352,0.124 -0.777,0.186 -1.277,0.186 -0.47,0 -0.888,-0.064 -1.249,-0.19 -0.363,-0.127 -0.665,-0.3 -0.908,-0.516 -0.243,-0.218 -0.425,-0.473 -0.549,-0.768 -0.123,-0.293 -0.184,-0.61 -0.184,-0.95 0,-0.434 0.107,-0.795 0.32,-1.08 0.214,-0.287 0.496,-0.533 0.848,-0.734 0.351,-0.203 0.75,-0.378 1.195,-0.528 0.446,-0.148 0.903,-0.302 1.369,-0.462 0.467,-0.158 0.924,-0.338 1.369,-0.537 0.446,-0.199 0.844,-0.451 1.196,-0.755 0.351,-0.304 0.634,-0.678 0.847,-1.119 0.214,-0.443 0.321,-0.986 0.321,-1.63 0,-0.68 -0.116,-1.32 -0.348,-1.919 -0.232,-0.597 -0.57,-1.116 -1.016,-1.559 -0.445,-0.441 -0.992,-0.79 -1.641,-1.042 -0.648,-0.255 -1.385,-0.381 -2.21,-0.381 -1.008,0 -1.926,0.182 -2.756,0.548 -0.829,0.366 -1.537,0.862 -2.124,1.484 l 0.609,0.999 c 0.057,0.08 0.128,0.148 0.212,0.201 0.083,0.056 0.175,0.082 0.277,0.082 0.152,0 0.326,-0.082 0.521,-0.244 0.196,-0.163 0.44,-0.342 0.734,-0.537 0.293,-0.197 0.648,-0.377 1.064,-0.539 0.418,-0.163 0.926,-0.244 1.528,-0.244 0.499,0 0.944,0.068 1.336,0.205 0.391,0.139 0.723,0.332 0.994,0.582 0.272,0.251 0.48,0.55 0.625,0.897 0.144,0.348 0.217,0.735 0.217,1.163 0,0.471 -0.107,0.856 -0.321,1.158 -0.213,0.299 -0.494,0.551 -0.841,0.755 -0.348,0.201 -0.745,0.374 -1.19,0.515 -0.446,0.141 -0.903,0.287 -1.369,0.434 -0.467,0.148 -0.924,0.321 -1.369,0.516 -0.446,0.197 -0.843,0.449 -1.19,0.761 -0.348,0.313 -0.629,0.702 -0.842,1.168 -0.214,0.467 -0.321,1.044 -0.321,1.733 0,0.552 0.107,1.083 0.321,1.598 0.213,0.514 0.523,0.971 0.928,1.369 0.407,0.398 0.908,0.717 1.505,0.956 0.598,0.24 1.285,0.36 2.06,0.36 0.869,0 1.662,-0.139 2.379,-0.413 0.718,-0.276 1.344,-0.674 1.88,-1.196 z" /></g><path
           id="path32"
           style="fill:#231f20;fill-opacity:1;fill-rule:nonzero;stroke:none"
           d="m 100.77,25.086 h -2.108 v 15.571 h 2.108 z" /><g
           transform="translate(110.7946,40.5862)"
           id="g34"><path
             id="path36"
             style="fill:#231f20;fill-opacity:1;fill-rule:nonzero;stroke:none"
             d="m 0,0 c 0.09,-0.047 0.194,-0.143 0.309,-0.287 l 9.019,-11.735 c -0.022,0.188 -0.037,0.37 -0.043,0.548 -0.008,0.177 -0.011,0.35 -0.011,0.517 V 0.071 h 1.847 V -15.5 h -1.065 c -0.167,0 -0.306,0.03 -0.418,0.087 -0.112,0.058 -0.223,0.157 -0.332,0.293 L 0.298,-3.395 c 0.015,-0.182 0.026,-0.359 0.034,-0.532 0.006,-0.174 0.01,-0.334 0.01,-0.48 V -15.5 H -1.505 V 0.071 h 1.087 C -0.23,0.071 -0.091,0.047 0,0" /></g><g
           transform="translate(138.041,38.2225)"
           id="g38"><path
             id="path40"
             style="fill:#231f20;fill-opacity:1;fill-rule:nonzero;stroke:none"
             d="m 0,0 c -0.065,-0.107 -0.135,-0.188 -0.208,-0.244 -0.071,-0.053 -0.165,-0.081 -0.282,-0.081 -0.123,0 -0.266,0.062 -0.429,0.184 -0.162,0.124 -0.369,0.259 -0.619,0.408 -0.25,0.148 -0.551,0.285 -0.902,0.407 -0.352,0.124 -0.777,0.186 -1.277,0.186 -0.47,0 -0.888,-0.064 -1.249,-0.19 -0.363,-0.127 -0.665,-0.3 -0.908,-0.516 -0.243,-0.218 -0.425,-0.473 -0.549,-0.768 -0.123,-0.293 -0.184,-0.61 -0.184,-0.95 0,-0.434 0.107,-0.795 0.32,-1.08 0.214,-0.287 0.496,-0.533 0.848,-0.734 0.351,-0.203 0.75,-0.378 1.195,-0.528 0.446,-0.148 0.903,-0.302 1.369,-0.462 0.467,-0.158 0.924,-0.338 1.369,-0.537 0.446,-0.199 0.844,-0.451 1.196,-0.755 0.351,-0.304 0.634,-0.678 0.847,-1.119 0.214,-0.443 0.321,-0.986 0.321,-1.63 0,-0.68 -0.116,-1.32 -0.348,-1.919 -0.232,-0.597 -0.57,-1.116 -1.016,-1.559 -0.445,-0.441 -0.992,-0.79 -1.641,-1.042 -0.648,-0.255 -1.385,-0.381 -2.21,-0.381 -1.008,0 -1.926,0.182 -2.756,0.548 -0.829,0.366 -1.537,0.862 -2.124,1.484 l 0.609,0.999 c 0.057,0.08 0.128,0.148 0.212,0.201 0.083,0.056 0.175,0.082 0.277,0.082 0.152,0 0.326,-0.082 0.521,-0.244 0.196,-0.163 0.44,-0.342 0.734,-0.537 0.293,-0.197 0.648,-0.377 1.064,-0.539 0.418,-0.163 0.926,-0.244 1.528,-0.244 0.499,0 0.944,0.068 1.336,0.205 0.391,0.139 0.723,0.332 0.994,0.582 0.272,0.251 0.48,0.55 0.625,0.897 0.144,0.348 0.217,0.735 0.217,1.163 0,0.471 -0.107,0.856 -0.321,1.158 -0.213,0.299 -0.494,0.551 -0.841,0.755 -0.348,0.201 -0.745,0.374 -1.19,0.515 -0.446,0.141 -0.903,0.287 -1.369,0.434 -0.467,0.148 -0.924,0.321 -1.369,0.516 -0.446,0.197 -0.843,0.449 -1.19,0.761 -0.348,0.313 -0.629,0.702 -0.842,1.168 -0.214,0.467 -0.321,1.044 -0.321,1.733 0,0.552 0.107,1.083 0.321,1.598 0.213,0.514 0.523,0.971 0.928,1.369 0.407,0.398 0.908,0.717 1.505,0.956 0.598,0.24 1.285,0.36 2.06,0.36 0.869,0 1.662,-0.139 2.379,-0.413 0.718,-0.276 1.344,-0.674 1.88,-1.196 z" /></g><g
           transform="translate(148.2437,33.8329)"
           id="g42"><path
             id="path44"
             style="fill:#231f20;fill-opacity:1;fill-rule:nonzero;stroke:none"
             d="M 0,0 H 0.793 C 1.069,0 1.287,0.034 1.45,0.105 1.613,0.173 1.767,0.291 1.912,0.458 l 5.184,5.867 c 0.158,0.18 0.312,0.308 0.461,0.386 0.148,0.077 0.339,0.113 0.571,0.113 H 9.92 L 3.987,0.12 C 3.835,-0.047 3.692,-0.188 3.558,-0.304 3.424,-0.419 3.281,-0.513 3.129,-0.586 3.332,-0.65 3.509,-0.749 3.661,-0.879 3.813,-1.01 3.972,-1.172 4.139,-1.369 l 6.194,-7.378 H 8.507 c -0.138,0 -0.253,0.011 -0.347,0.032 -0.094,0.024 -0.176,0.051 -0.244,0.088 -0.07,0.036 -0.133,0.083 -0.19,0.141 -0.059,0.058 -0.117,0.12 -0.175,0.186 L 2.172,-2.118 C 2.093,-2.032 2.018,-1.957 1.95,-1.895 1.881,-1.833 1.801,-1.782 1.711,-1.737 1.62,-1.694 1.516,-1.664 1.396,-1.645 1.276,-1.628 1.129,-1.619 0.956,-1.619 H 0 V -8.747 H -2.097 V 6.824 H 0 Z" /></g><path
           id="path46"
           style="fill:#231f20;fill-opacity:1;fill-rule:nonzero;stroke:none"
           d="m 167.574,25.086 h -2.108 v 15.571 h 2.108 z" /><g
           transform="translate(181.8519,37.8973)"
           id="g48"><path
             id="path50"
             style="fill:#0082bf;fill-opacity:1;fill-rule:nonzero;stroke:none"
             d="M 0,0 V -4.302 H 4.021 V -6.715 H 0 v -4.325 h -2.738 v 4.325 h -3.999 v 2.413 h 3.999 V 0 Z" /></g><g
           transform="translate(203.6487,40.6568)"
           id="g52"><path
             id="path54"
             style="fill:#231f20;fill-opacity:1;fill-rule:nonzero;stroke:none"
             d="m 0,0 v -1.771 h -5.031 v -13.8 h -2.108 v 13.8 h -5.053 V 0 Z" /></g><g
           transform="translate(222.838,25.0859)"
           id="g56"><path
             id="path58"
             style="fill:#231f20;fill-opacity:1;fill-rule:nonzero;stroke:none"
             d="m 0,0 h -2.119 v 7.085 h -8.388 V 0 h -2.119 v 15.571 h 2.119 V 8.627 h 8.388 v 6.944 H 0 Z" /></g><path
           id="path60"
           style="fill:#231f20;fill-opacity:1;fill-rule:nonzero;stroke:none"
           d="m 233.486,25.086 h -2.108 v 15.571 h 2.108 z" /><g
           transform="translate(244.6134,30.8681)"
           id="g62"><path
             id="path64"
             style="fill:#231f20;fill-opacity:1;fill-rule:nonzero;stroke:none"
             d="M 0,0 H 5.813 L 3.368,6.334 C 3.209,6.725 3.054,7.213 2.901,7.801 2.822,7.504 2.743,7.23 2.668,6.98 2.592,6.73 2.517,6.512 2.445,6.323 Z m 10.203,-5.782 h -1.63 c -0.189,0 -0.34,0.047 -0.456,0.141 C 8,-5.547 7.914,-5.427 7.856,-5.282 L 6.4,-1.523 h -6.987 l -1.456,-3.759 c -0.05,-0.13 -0.138,-0.246 -0.261,-0.348 -0.123,-0.101 -0.275,-0.152 -0.457,-0.152 H -4.39 L 1.836,9.789 h 2.141 z" /></g><g
           transform="translate(267.6157,26.6176)"
           id="g66"><path
             id="path68"
             style="fill:#231f20;fill-opacity:1;fill-rule:nonzero;stroke:none"
             d="m 0,0 c 0.42,0 0.806,0.021 1.157,0.06 0.352,0.041 0.684,0.1 0.995,0.18 0.311,0.079 0.604,0.175 0.88,0.288 0.275,0.112 0.55,0.24 0.826,0.385 V 4.347 H 1.446 c -0.138,0 -0.249,0.04 -0.331,0.12 C 1.031,4.546 0.989,4.644 0.989,4.76 V 5.955 H 5.77 V -0.021 C 5.379,-0.304 4.971,-0.55 4.548,-0.759 4.124,-0.969 3.671,-1.144 3.189,-1.286 2.708,-1.427 2.192,-1.534 1.641,-1.602 1.091,-1.671 0.493,-1.705 -0.152,-1.705 c -1.129,0 -2.166,0.195 -3.107,0.582 -0.942,0.387 -1.753,0.93 -2.434,1.63 -0.682,0.697 -1.212,1.536 -1.592,2.516 -0.381,0.977 -0.571,2.053 -0.571,3.225 0,1.19 0.187,2.272 0.56,3.25 0.373,0.977 0.905,1.816 1.597,2.515 0.692,0.7 1.529,1.241 2.511,1.624 0.98,0.385 2.08,0.578 3.297,0.578 0.616,0 1.188,-0.047 1.717,-0.137 0.528,-0.09 1.019,-0.221 1.473,-0.392 0.452,-0.169 0.87,-0.376 1.254,-0.618 0.384,-0.244 0.742,-0.518 1.076,-0.821 L 5.031,11.29 C 4.908,11.096 4.749,10.997 4.553,10.997 c -0.115,0 -0.243,0.041 -0.38,0.12 -0.181,0.101 -0.385,0.225 -0.608,0.37 -0.225,0.144 -0.499,0.283 -0.82,0.417 -0.323,0.135 -0.703,0.249 -1.142,0.343 -0.438,0.094 -0.958,0.141 -1.559,0.141 -0.877,0 -1.67,-0.143 -2.38,-0.428 C -3.046,11.673 -3.65,11.263 -4.15,10.732 -4.65,10.199 -5.034,9.553 -5.302,8.796 -5.57,8.039 -5.704,7.19 -5.704,6.248 c 0,-0.984 0.139,-1.863 0.418,-2.635 0.279,-0.77 0.672,-1.425 1.179,-1.959 C -3.6,1.117 -2.999,0.708 -2.303,0.426 -1.608,0.143 -0.84,0 0,0" /></g><g
           transform="translate(283.578,30.8681)"
           id="g70"><path
             id="path72"
             style="fill:#231f20;fill-opacity:1;fill-rule:nonzero;stroke:none"
             d="M 0,0 H 5.813 L 3.368,6.334 C 3.209,6.725 3.054,7.213 2.901,7.801 2.822,7.504 2.743,7.23 2.668,6.98 2.592,6.73 2.517,6.512 2.445,6.323 Z m 10.203,-5.782 h -1.63 c -0.189,0 -0.34,0.047 -0.456,0.141 -0.116,0.094 -0.203,0.214 -0.261,0.359 L 6.4,-1.523 h -6.987 l -1.456,-3.759 c -0.05,-0.13 -0.138,-0.246 -0.261,-0.348 -0.123,-0.101 -0.275,-0.152 -0.457,-0.152 H -4.39 L 1.836,9.789 h 2.141 z" /></g><g
           transform="translate(302.41,33.1163)"
           id="g74"><path
             id="path76"
             style="fill:#231f20;fill-opacity:1;fill-rule:nonzero;stroke:none"
             d="m 0,0 h 2.205 c 0.614,0 1.158,0.075 1.624,0.222 0.469,0.15 0.858,0.36 1.174,0.632 0.315,0.271 0.552,0.594 0.711,0.971 0.16,0.376 0.239,0.793 0.239,1.251 0,0.926 -0.306,1.626 -0.917,2.096 C 4.424,5.643 3.512,5.878 2.302,5.878 H 0 Z M 0,-1.532 V -8.03 H -2.098 V 7.54 h 4.4 C 3.288,7.54 4.139,7.442 4.856,7.243 5.573,7.042 6.165,6.755 6.634,6.379 7.1,6.002 7.446,5.547 7.671,5.014 7.896,4.482 8.007,3.887 8.007,3.228 8.007,2.676 7.921,2.163 7.746,1.684 7.573,1.206 7.32,0.777 6.991,0.396 6.661,0.017 6.259,-0.308 5.784,-0.575 5.312,-0.843 4.772,-1.046 4.171,-1.185 4.432,-1.337 4.663,-1.557 4.867,-1.846 L 9.408,-8.03 H 7.541 c -0.386,0 -0.668,0.149 -0.848,0.447 L 2.65,-2.021 C 2.526,-1.846 2.394,-1.722 2.248,-1.645 2.103,-1.57 1.887,-1.532 1.596,-1.532 Z" /></g><g
           transform="translate(321.0442,30.8681)"
           id="g78"><path
             id="path80"
             style="fill:#231f20;fill-opacity:1;fill-rule:nonzero;stroke:none"
             d="M 0,0 H 5.814 L 3.369,6.334 C 3.209,6.725 3.055,7.213 2.901,7.801 2.822,7.504 2.745,7.23 2.668,6.98 2.593,6.73 2.518,6.512 2.445,6.323 Z m 10.204,-5.782 h -1.63 c -0.189,0 -0.34,0.047 -0.456,0.141 C 8,-5.547 7.915,-5.427 7.857,-5.282 L 6.4,-1.523 H -0.586 L -2.043,-5.282 C -2.092,-5.412 -2.18,-5.528 -2.304,-5.63 -2.426,-5.731 -2.578,-5.782 -2.76,-5.782 H -4.39 L 1.838,9.789 h 2.139 z" /></g><g
           transform="translate(343.9587,30.4659)"
           id="g82"><path
             id="path84"
             style="fill:#231f20;fill-opacity:1;fill-rule:nonzero;stroke:none"
             d="m 0,0 c 0,-0.871 -0.107,-1.649 -0.319,-2.336 -0.214,-0.689 -0.53,-1.271 -0.945,-1.745 -0.417,-0.475 -0.931,-0.839 -1.538,-1.091 -0.608,-0.255 -1.307,-0.381 -2.097,-0.381 -0.703,0 -1.435,0.1 -2.194,0.304 0.012,0.209 0.032,0.419 0.053,0.624 0.021,0.208 0.043,0.411 0.064,0.614 0.015,0.124 0.06,0.223 0.137,0.3 0.075,0.077 0.191,0.113 0.342,0.113 0.131,0 0.304,-0.032 0.522,-0.096 0.216,-0.067 0.507,-0.099 0.869,-0.099 0.479,0 0.903,0.073 1.277,0.216 0.372,0.146 0.689,0.37 0.945,0.674 0.257,0.306 0.452,0.695 0.587,1.168 0.134,0.475 0.201,1.04 0.201,1.69 V 10.191 H 0 Z" /></g><g
           transform="translate(350.6864,26.4229)"
           id="g86"><path
             id="path88"
             style="fill:#231f20;fill-opacity:1;fill-rule:nonzero;stroke:none"
             d="M 0,0 C 0,0.167 0.03,0.325 0.092,0.473 0.154,0.62 0.24,0.751 0.353,0.864 0.464,0.975 0.601,1.065 0.759,1.129 0.92,1.196 1.093,1.228 1.281,1.228 1.5,1.228 1.692,1.187 1.863,1.108 2.032,1.029 2.173,0.918 2.287,0.777 2.398,0.635 2.484,0.473 2.541,0.289 2.599,0.103 2.629,-0.098 2.629,-0.314 2.629,-0.642 2.582,-0.98 2.488,-1.331 2.394,-1.681 2.259,-2.03 2.086,-2.374 1.912,-2.719 1.696,-3.053 1.44,-3.38 1.183,-3.705 0.89,-4.007 0.565,-4.28 l -0.328,0.314 c -0.094,0.088 -0.141,0.188 -0.141,0.304 0,0.094 0.052,0.192 0.154,0.293 0.071,0.081 0.165,0.188 0.276,0.321 0.114,0.134 0.227,0.288 0.342,0.462 0.116,0.173 0.223,0.366 0.321,0.575 0.099,0.212 0.169,0.434 0.212,0.674 H 1.26 c -0.188,0 -0.359,0.032 -0.511,0.098 C 0.597,-1.174 0.464,-1.08 0.353,-0.963 0.24,-0.843 0.154,-0.702 0.092,-0.537 0.03,-0.374 0,-0.195 0,0" /></g><g
           transform="translate(369.9409,26.3181)"
           id="g90"><path
             id="path92"
             style="fill:#231f20;fill-opacity:1;fill-rule:nonzero;stroke:none"
             d="M 0,0 H 4.685 V -1.232 H -1.467 V 9.6 L 0,9.6 Z" /></g><g
           transform="translate(380.735,26.3181)"
           id="g94"><path
             id="path96"
             style="fill:#231f20;fill-opacity:1;fill-rule:nonzero;stroke:none"
             d="M 0,0 H 4.685 V -1.232 H -1.467 V 9.6 L 0,9.6 Z" /></g><g
           transform="translate(391.6725,30.3012)"
           id="g98"><path
             id="path100"
             style="fill:#231f20;fill-opacity:1;fill-rule:nonzero;stroke:none"
             d="M 0,0 H 1.737 C 2.156,0 2.526,0.056 2.845,0.167 3.166,0.278 3.433,0.432 3.649,0.633 3.868,0.832 4.03,1.07 4.141,1.346 4.253,1.624 4.308,1.93 4.308,2.261 4.308,2.952 4.094,3.491 3.669,3.878 3.243,4.268 2.599,4.46 1.737,4.46 H 0 Z M 0,-1.164 V -5.215 H -1.459 V 5.617 H 1.737 C 2.424,5.617 3.018,5.538 3.525,5.38 4.032,5.22 4.452,4.995 4.785,4.702 5.117,4.411 5.365,4.058 5.53,3.645 5.692,3.23 5.774,2.77 5.774,2.261 5.774,1.756 5.686,1.296 5.51,0.877 5.333,0.46 5.076,0.098 4.736,-0.203 4.396,-0.505 3.972,-0.74 3.47,-0.909 2.965,-1.078 2.387,-1.164 1.737,-1.164 Z" /></g><g
           transform="translate(83.7526,52.636)"
           id="g102"><path
             id="path104"
             style="fill:#0082bf;fill-opacity:1;fill-rule:nonzero;stroke:none"
             d="m 0,0 -32.069,34.303 -5.268,-5.106 V 0.963 h -2.773 v 67.453 h 2.773 V 33.148 L 0.092,69.477 1.94,67.358 -30.129,36.327 2.033,1.927 Z" /></g><g
           transform="translate(110.5593,53.5987)"
           id="g106"><path
             id="path108"
             style="fill:#0082bf;fill-opacity:1;fill-rule:nonzero;stroke:none"
             d="m 0,0 v 64.564 h -20.148 v 2.89 H 22.92 v -2.89 H 2.772 L 2.772,0 Z" /></g><g
           transform="translate(142.7257,121.0525)"
           id="g110"><path
             id="path112"
             style="fill:#231f20;fill-opacity:1;fill-rule:nonzero;stroke:none"
             d="m 0,0 v -64.562 h 31.237 v -2.892 h -34.01 l 0,67.454 z" /></g><g
           transform="translate(189.3089,74.7035)"
           id="g114"><path
             id="path116"
             style="fill:#231f20;fill-opacity:1;fill-rule:nonzero;stroke:none"
             d="M 0,0 H 28.743 L 14.418,39.797 Z m 14.418,47.988 24.768,-68.612 -2.588,-0.962 -6.746,18.694 H -1.016 l -6.747,-18.694 -2.587,0.962 z" /></g><g
           transform="translate(250.31,121.4375)"
           id="g118"><path
             id="path120"
             style="fill:#231f20;fill-opacity:1;fill-rule:nonzero;stroke:none"
             d="M 0,0 5.453,-19.657 10.997,0 13.586,-0.77 6.839,-24.669 17.005,-60.707 34.009,0 36.598,-0.77 17.005,-70.729 5.453,-29.582 -6.008,-70.729 -25.6,-0.77 -23.012,0 -6.008,-60.707 4.067,-24.669 -2.588,-0.77 Z" /></g></g></g></g></svg>